<svg width="642" height="686" viewBox="0 0 642 686" fill="none" xmlns="http://www.w3.org/2000/svg">
<path fill-rule="evenodd" clip-rule="evenodd" d="M293.5 0.947007C278.279 2.62201 274.037 3.26001 262 5.68401C227.792 12.572 202.862 20.806 176.204 34.023C126.747 58.542 85.879 92.872 53.02 137.5C33.66 163.794 18.146 195.819 10.024 226.252C3.603 250.311 0.977995 270.626 0.938995 296.549C0.921995 307.576 1.129 317.251 1.399 318.049C1.668 318.847 2.123 321.975 2.409 325C3.624 337.837 8.47001 359.466 13.669 375.25C25.838 412.197 46.076 444.323 74.626 472.018C94.312 491.114 109.591 501.844 134.5 514.064C160.731 526.932 189.472 535.325 217 538.156C228.309 539.319 259.479 538.678 267 537.128C269.475 536.618 273.505 535.931 275.957 535.601C283.285 534.614 302.621 529.154 312.375 525.317C356.471 507.97 388.167 479.124 402.829 443C419.841 401.084 415.997 361.007 391.897 329.024C384.096 318.671 375.139 311.244 363.549 305.52C351.566 299.601 343.117 297.633 330 297.704C312.637 297.797 299.407 303.393 286.943 315.916C278.961 323.936 275.557 331.404 275.525 340.97C275.504 347.428 275.895 349.173 278.277 353.223C283.217 361.627 293.323 365.676 301.533 362.541C306.541 360.628 312.556 354.297 313.515 349.93C315.005 343.149 322.53 338 330.949 338C347.965 338 365.371 355.338 371.107 378C373.211 386.312 372.729 404.715 370.157 414.284C367.742 423.267 361.675 436.705 356.902 443.642C342.126 465.118 313.797 483.463 283.903 490.911C252.731 498.677 215.8 494.796 184.302 480.441C137.889 459.29 99.124 414.95 82.592 364.104C71.666 330.499 68.739 300.831 73.112 268C74.459 257.887 80.477 232.675 84.189 221.596C94.844 189.793 117.553 154.864 146.573 125.645C180.181 91.807 225.749 65.734 274.5 52.448C301.575 45.069 311.002 43.733 339.5 43.238C367.247 42.757 382.368 43.803 401.838 47.551C408.802 48.892 416.045 49.992 417.934 49.995C425.836 50.007 434.053 42.955 435.512 34.909C436.979 26.817 430.96 16.766 422.807 13.691C412.521 9.813 393.186 5.731 369.5 2.439C356.191 0.588996 305.756 -0.400993 293.5 0.947007ZM307.5 77.549C279.094 82.631 258.067 89.378 234.5 100.972C208.849 113.591 189.171 127.684 169.577 147.47C139.355 177.988 120.163 210.524 110.572 247.5C100.419 286.643 101.831 326.314 114.695 363.391C119.324 376.73 129.401 396.53 137.146 407.5C144.912 418.5 162.036 436.417 171.5 443.444C180.587 450.192 196.482 459.523 204.299 462.7C214.001 466.642 221.5 465.005 227.409 457.656C229.91 454.545 230.487 452.923 230.431 449.156C230.345 443.344 226.655 437.41 220.976 433.951C198.406 420.206 189.246 412.869 179.512 400.741C170.405 389.393 167.072 384.207 160.705 371.478C137.367 324.823 137.656 272.003 161.515 223.5C176.836 192.352 207.292 161.098 240.73 142.209C262.275 130.037 287.265 121.645 314.5 117.434C323.217 116.087 329.236 115.857 343.5 116.325C395.104 118.02 438.566 134.034 480.328 166.742C536.879 211.033 574.178 279.037 580.791 349.907C581.181 354.083 581.487 368.75 581.471 382.5C581.447 403.995 581.118 409.393 579.127 421C575.692 441.024 572.813 452.506 566.212 472.5C557.218 499.745 545.846 522.183 528.959 546C505.733 578.758 477.97 603.707 444.5 621.899L438.5 625.16L442.5 621.83C448.778 616.604 467.071 599.659 471.624 594.853C486.491 579.159 503.379 555.511 515.035 534.064C546.347 476.452 559.344 406.389 549.459 348.5C544.374 318.722 533.854 288.854 519.238 262.696C501.195 230.404 470.453 198.092 440.644 180.087C407.824 160.263 372.007 150 335.641 150C313.665 150 291.706 154.792 268.772 164.592C246.01 174.318 225.127 190.406 207.884 211.5C199.145 222.19 195.933 227.051 190.084 238.434C178.293 261.385 173.119 285.553 174.275 312.277C176.754 369.582 211.022 416.378 263.119 433.601C270.45 436.024 273.317 436.409 286 436.666C303.453 437.019 309.629 435.807 322.723 429.455C332.475 424.725 342.938 416.072 347.153 409.252C353.927 398.292 351.836 384.553 342.285 377.268C339.529 375.166 337.422 374.507 332.63 374.249C324.371 373.804 319.793 376.444 314.956 384.44C310.699 391.477 308.686 392.939 300.379 395.031C289.025 397.888 273.682 394.769 260.282 386.877C251.521 381.718 237.115 366.952 231.628 357.509C220.8 338.87 216.744 323.706 216.765 301.935C216.779 287.217 218.706 276.854 223.818 264C236.348 232.493 266.249 206.304 301 196.398C316.961 191.849 323.115 191.106 342.5 191.39C358.926 191.631 361.562 191.927 372.648 194.784C423.9 207.99 465.445 241.999 490.794 291.5C500.616 310.679 508.507 333.704 510.673 349.5C510.975 351.7 511.769 357.292 512.439 361.927C514.544 376.497 514.389 404.552 512.116 420.5C508.3 447.268 501.261 470.176 489.07 495.5C480.934 512.402 476.583 519.589 465.589 534.284C440.157 568.278 409.534 593.375 369.5 613.036C345.685 624.731 333.421 628.952 308.5 634.029C288.439 638.115 277.456 639.232 251 639.875C222.635 640.565 221.304 640.806 216.298 646.169C213.577 649.083 211 655.08 211 658.5C211 664.312 216.355 672.568 222 675.459C224.286 676.63 237.403 679.407 252.5 681.918C265.376 684.059 284.365 685.367 303.5 685.432C321.016 685.492 344.377 684.457 345.957 683.551C346.256 683.38 349.425 682.937 353 682.567C362.304 681.604 383.745 677.321 396 673.978C443.94 660.898 481.77 641.606 521 610.232C532.831 600.771 551.739 582.727 560 573.014C563.025 569.458 566.146 565.862 566.936 565.024C570.501 561.239 586.286 539.347 591.562 530.87C603.866 511.102 614.82 487.815 623.254 463.5C629.399 445.782 636.735 415.745 638.397 401.5C638.653 399.3 639.42 393.225 640.1 388C641.49 377.319 641.911 331.596 640.727 319.799C637.613 288.748 628.89 255.445 616.006 225.414C608.968 209.01 596.476 186.78 586.096 172.19C575.904 157.865 555.347 133.562 544.699 123.25C537.452 116.231 537.055 116 532.254 116C523.764 116 518.046 121.341 518.015 129.3C517.996 134.047 519.985 137.98 525.957 145C536.506 157.403 536.043 158.076 524.495 147.124C506.563 130.116 481.787 112.493 461.196 102.099C446.473 94.667 422.873 86.271 404.5 81.93C382.072 76.631 374.545 75.769 347.5 75.4C323.257 75.069 320.554 75.214 307.5 77.549ZM316.382 227.448C297.333 231.126 277.856 239.558 265.5 249.473C257.068 256.239 248.262 266.184 245.107 272.501C240.663 281.398 242.941 292.857 250.241 298.326C254.272 301.346 256.877 302.167 262.439 302.167C268.028 302.167 272.63 299.778 276.973 294.623C292.241 276.497 308.248 268.639 332.5 267.365C345.748 266.669 357.994 268.853 371.326 274.288C383.71 279.337 393.054 285.888 405.033 297.92C420.224 313.179 428.723 327.121 435.91 348.572C440.523 362.34 442.36 374.427 442.36 391C442.36 426.388 432.081 457.868 410.818 487.594C391.76 514.238 365.317 535.748 331.5 552.113C308.046 563.464 284.99 570.284 257.678 573.95C247.69 575.291 208.269 575.298 196.5 573.962C150.663 568.756 108.985 551.312 68.035 520.193C59.031 513.351 58.309 513 53.235 513C47.07 513 43.299 514.668 39.645 519.01C32.387 527.636 34.606 538.159 45.696 547.704C77.147 574.774 115.856 594.689 157 604.97C183.988 611.713 199.094 613.664 226 613.881C250.803 614.08 262.321 612.954 287.5 607.868C323.074 600.682 355.229 586.727 387 564.687C438.915 528.673 472.32 475.458 480.459 415.804C482.211 402.962 482.746 382.158 481.586 372C477.864 339.404 463.665 305.376 443.301 280.248C421.159 252.927 394.749 236.219 362 228.815C350.748 226.271 326.274 225.537 316.382 227.448Z" fill="black"/>
</svg>
